<svg id="svg" version="1.1" xmlns="http://www.w3.org/2000/svg" xmlns:xlink="http://www.w3.org/1999/xlink" width="400" height="180.99290780141845" viewBox="0, 0, 400,180.99290780141845"><g id="svgg"><path id="path0" d="M0.000 16.454 L 0.000 32.908 25.248 32.908 L 50.496 32.908 50.496 105.816 L 50.496 178.723 69.787 178.723 L 89.078 178.723 89.078 105.816 L 89.078 32.908 104.649 32.908 C 119.097 32.908,120.273 32.983,120.961 33.948 C 121.369 34.519,133.372 47.605,147.636 63.026 C 161.899 78.447,173.644 91.227,173.735 91.427 C 173.885 91.756,161.216 113.484,133.596 160.267 C 128.074 169.619,123.431 177.598,123.278 177.997 C 123.055 178.579,126.994 178.721,143.060 178.713 L 163.121 178.702 168.287 170.060 C 171.128 165.307,181.701 147.759,191.782 131.064 C 201.863 114.369,211.561 98.284,213.333 95.319 C 217.065 89.075,253.421 28.793,262.940 13.065 C 266.486 7.206,269.678 1.870,270.033 1.206 L 270.678 0.000 252.622 -0.000 L 234.567 -0.000 230.333 6.827 C 228.004 10.581,225.183 15.113,224.062 16.898 C 222.942 18.682,216.368 29.161,209.454 40.185 C 202.540 51.209,196.531 60.731,196.100 61.346 C 195.271 62.530,140.687 3.604,140.244 1.048 C 140.069 0.036,137.682 0.000,70.031 0.000 L 0.000 0.000 0.000 16.454 M198.079 162.128 C 193.338 174.566,193.479 173.732,196.157 173.509 C 198.093 173.348,198.352 173.117,199.212 170.780 L 200.152 168.227 203.972 168.227 L 207.791 168.227 208.731 170.780 C 209.591 173.117,209.850 173.348,211.786 173.509 C 214.465 173.733,214.607 174.564,209.849 162.128 L 205.780 151.489 203.957 151.489 L 202.133 151.489 198.079 162.128 M229.220 152.125 C 220.913 155.428,220.273 169.454,228.264 173.082 C 233.379 175.404,239.433 174.100,239.433 170.676 L 239.433 168.481 237.759 169.347 C 232.301 172.170,226.950 168.997,226.950 162.937 C 226.950 156.242,231.647 153.534,238.440 156.311 C 239.287 156.658,239.433 156.386,239.433 154.453 C 239.433 152.585,239.209 152.129,238.156 151.847 C 236.206 151.324,230.812 151.492,229.220 152.125 M256.622 152.482 C 256.422 153.028,254.542 157.943,252.445 163.404 L 248.632 173.333 250.328 173.515 C 252.867 173.787,253.372 173.397,254.170 170.548 L 254.899 167.943 258.740 167.943 L 262.581 167.943 263.601 170.780 C 264.589 173.527,264.692 173.617,266.839 173.617 C 268.366 173.617,268.981 173.396,268.812 172.908 C 268.678 172.518,266.799 167.540,264.638 161.847 L 260.709 151.494 258.847 151.492 C 257.590 151.490,256.868 151.811,256.622 152.482 M279.716 162.553 L 279.716 173.617 284.502 173.617 C 293.461 173.617,297.499 170.089,297.526 162.238 C 297.552 154.565,293.687 151.535,283.830 151.503 L 279.716 151.489 279.716 162.553 M309.220 162.553 L 309.220 173.617 315.461 173.617 L 321.702 173.617 321.702 171.915 L 321.702 170.213 317.447 170.213 L 313.191 170.213 313.191 167.376 L 313.191 164.539 316.879 164.539 L 320.567 164.539 320.567 162.553 L 320.567 160.567 316.879 160.567 L 313.191 160.567 313.191 158.014 L 313.191 155.461 317.163 155.461 L 321.135 155.461 321.135 153.475 L 321.135 151.489 315.177 151.489 L 309.220 151.489 309.220 162.553 M333.050 162.553 L 333.050 173.617 335.035 173.617 L 337.021 173.617 337.036 166.667 L 337.050 159.716 340.131 166.525 C 344.372 175.894,344.882 175.938,348.682 167.261 L 351.489 160.851 351.650 167.234 L 351.810 173.617 353.777 173.617 L 355.745 173.617 355.745 162.553 L 355.745 151.489 353.617 151.505 C 351.540 151.520,351.449 151.611,349.806 155.334 C 348.880 157.432,347.322 160.898,346.344 163.035 L 344.566 166.922 341.219 159.216 L 337.872 151.510 335.461 151.500 L 333.050 151.489 333.050 162.553 M366.052 151.929 C 366.156 152.171,367.837 155.470,369.787 159.262 C 373.079 165.660,373.333 166.423,373.333 169.886 L 373.333 173.617 375.319 173.617 L 377.305 173.617 377.305 169.467 C 377.305 165.499,377.453 165.033,380.696 158.829 C 384.717 151.134,384.675 151.374,381.986 151.597 C 379.953 151.765,379.754 151.973,377.508 156.279 L 375.158 160.785 372.821 156.137 L 370.484 151.489 368.173 151.489 C 366.903 151.489,365.948 151.687,366.052 151.929 M291.727 157.652 C 296.054 162.496,292.172 170.213,285.408 170.213 L 283.688 170.213 283.688 162.767 L 283.688 155.320 286.904 155.587 C 289.627 155.813,290.366 156.129,291.727 157.652 M205.461 161.844 L 206.508 164.539 204.001 164.539 L 201.493 164.539 202.688 161.001 C 203.345 159.055,204.002 157.842,204.149 158.306 C 204.295 158.770,204.886 160.362,205.461 161.844 M260.961 163.830 C 260.982 164.286,260.170 164.539,258.685 164.539 C 256.132 164.539,256.132 164.535,258.007 160.049 L 258.859 158.014 259.894 160.567 C 260.464 161.972,260.944 163.440,260.961 163.830 " stroke="none" fill="#000000" fill-rule="evenodd"></path></g></svg>