<svg id="svg" version="1.1" xmlns="http://www.w3.org/2000/svg" xmlns:xlink="http://www.w3.org/1999/xlink" width="400" height="264.70588235294116" viewBox="0, 0, 400,264.70588235294116"><g id="svgg"><path id="path0" d="M0.000 24.370 L 0.000 48.739 37.395 48.739 L 74.790 48.739 74.790 156.723 L 74.790 264.706 103.361 264.706 L 131.933 264.706 131.933 156.723 L 131.933 48.739 154.832 48.785 L 177.731 48.830 217.520 91.985 C 239.404 115.720,257.285 135.459,257.255 135.847 C 257.225 136.236,240.360 165.163,219.777 200.129 C 199.194 235.095,182.353 263.929,182.353 264.205 C 182.353 264.480,195.683 264.698,211.975 264.688 L 241.597 264.670 320.798 133.266 C 364.359 60.995,400.000 1.444,400.000 0.932 C 400.000 0.270,392.394 -0.000,373.717 -0.000 L 347.434 -0.000 319.939 43.908 C 304.817 68.057,291.736 88.882,290.872 90.186 L 289.300 92.556 248.642 47.836 C 226.279 23.240,207.862 2.415,207.715 1.558 C 207.455 0.051,204.065 0.000,103.723 0.000 L 0.000 0.000 0.000 24.370 " stroke="none" fill="#000000" fill-rule="evenodd"></path></g></svg>